# xmcd
#
# Track frame offsets: 
#        150
#        15343
#        35158
#        53770
#        73511
#        95100
#        112448
#        136412
#        155686
#        173198
#        193473
#
# Disc length: 2631 seconds
#
# Revision: 0
# Processed by: cddbd v1.4PL0 Copyright (c) Steve Scherf et al.
# Submitted via: ExactAudioCopy v0.90b4
#
DISCID=a60a450b
DTITLE=The Dee Stone Band - I Wanna Walk On Water
DYEAR=1996
DGENRE=Blues
TTITLE0=I Wanna Walk On Water
TTITLE1=Watch Your Back
TTITLE2=Good For Me
TTITLE3=Lay Ya Down
TTITLE4=Walkin' Away
TTITLE5=Mad In America
TTITLE6=Desire
TTITLE7=Searching
TTITLE8=Fires You Start
TTITLE9=Babylon Is Falling
TTITLE10=I Wanna Walk On Water (Reprise)
EXTD=
EXTT0=
EXTT1=
EXTT2=
EXTT3=
EXTT4=
EXTT5=
EXTT6=
EXTT7=
EXTT8=
EXTT9=
EXTT10=
PLAYORDER=
